<?xml version="1.0" encoding="utf-8"?>
<svg viewBox="0 0 40 40" xmlns="http://www.w3.org/2000/svg">
  <g transform="matrix(0.10000000149011612, 0, 0, -0.10000000149011612, -4.440892098500626e-16, 40)" fill="#5B7BF9" stroke="none">
    <path d="M 50 374 C 50 360 33.535 338.302 25 318 C 7.423 276.193 9.968 257.498 23 223 C 38 206 50 175 54 145 C 65 58 120 6 200 6 C 280 6 335 58 346 145 C 350 175 362 206 377 223 C 384.544 239.41 399.018 274.625 375 318 C 364.332 337.266 350 360 350 374 L 350 400 L 200 400 L 50 400 L 50 374 Z M 118 308 C 133 293 133 247 118 232 C 100 214 93 217 94 243 C 95 256 89 265 80 265 C 71 265 65 256 66 243 C 67 217 60 214 42 232 C 27 247 27 293 42 308 C 49 315 66 320 80 320 C 94 320 111 315 118 308 Z M 358 308 C 381 285 367 220 340 220 C 336 220 334 230 334 243 C 335 256 329 265 320 265 C 311 265 305 256 306 243 C 307 217 300 214 282 232 C 267 247 267 293 282 308 C 289 315 306 320 320 320 C 334 320 351 315 358 308 Z"/>
  </g>
</svg>